<mxfile host="app.diagrams.net" agent="Mozilla/5.0 (Windows NT 10.0; Win64; x64; rv:109.0) Gecko/20100101 Firefox/116.0" version="26.0.11">
  <diagram name="第 1 页" id="cj4zf659Wh8-ipj-Vmt7">
    <mxGraphModel dx="1434" dy="754" grid="1" gridSize="10" guides="1" tooltips="1" connect="1" arrows="1" fold="1" page="1" pageScale="1" pageWidth="827" pageHeight="1169" math="0" shadow="0">
      <root>
        <mxCell id="0" />
        <mxCell id="1" parent="0" />
        <mxCell id="OjZHSgcHj5NO1IIlfvDc-1" value="测试用例代码仓库" style="strokeWidth=2;html=1;shape=mxgraph.flowchart.database;whiteSpace=wrap;fillColor=#f8cecc;strokeColor=#b85450;" parent="1" vertex="1">
          <mxGeometry x="110" y="105" width="110" height="50" as="geometry" />
        </mxCell>
        <mxCell id="OjZHSgcHj5NO1IIlfvDc-2" value="" style="verticalLabelPosition=bottom;verticalAlign=top;html=1;shape=mxgraph.basic.rect;fillColor2=none;strokeWidth=1;size=20;indent=5;fillColor=#d5e8d4;strokeColor=#82b366;" parent="1" vertex="1">
          <mxGeometry x="320" y="105" width="110" height="40" as="geometry" />
        </mxCell>
        <mxCell id="OjZHSgcHj5NO1IIlfvDc-3" value="" style="verticalLabelPosition=bottom;verticalAlign=top;html=1;shape=mxgraph.basic.rect;fillColor2=none;strokeWidth=1;size=20;indent=5;fillColor=#d5e8d4;strokeColor=#82b366;" parent="1" vertex="1">
          <mxGeometry x="330" y="115" width="110" height="40" as="geometry" />
        </mxCell>
        <mxCell id="OjZHSgcHj5NO1IIlfvDc-4" value="测试用例" style="verticalLabelPosition=middle;verticalAlign=middle;html=1;shape=mxgraph.basic.rect;fillColor2=none;strokeWidth=1;size=20;indent=5;fillColor=#d5e8d4;strokeColor=#82b366;labelPosition=center;align=center;" parent="1" vertex="1">
          <mxGeometry x="340" y="125" width="110" height="40" as="geometry" />
        </mxCell>
        <mxCell id="OjZHSgcHj5NO1IIlfvDc-6" value="Jenkins" style="verticalLabelPosition=middle;verticalAlign=middle;html=1;shape=mxgraph.basic.rect;fillColor2=none;strokeWidth=1;size=20;indent=5;fillColor=#dae8fc;strokeColor=#6c8ebf;labelPosition=center;align=center;" parent="1" vertex="1">
          <mxGeometry x="110" y="295" width="110" height="40" as="geometry" />
        </mxCell>
        <mxCell id="OjZHSgcHj5NO1IIlfvDc-7" value="&lt;div&gt;测试用例&lt;/div&gt;&lt;div&gt;开发和调试的本地机器&lt;br&gt;&lt;/div&gt;" style="ellipse;whiteSpace=wrap;html=1;fillColor=#e1d5e7;strokeColor=#9673a6;" parent="1" vertex="1">
          <mxGeometry x="337.5" y="200" width="125" height="50" as="geometry" />
        </mxCell>
        <mxCell id="OjZHSgcHj5NO1IIlfvDc-8" value="被测系统（SUT）" style="rounded=1;whiteSpace=wrap;html=1;fillColor=#f5f5f5;fontColor=#333333;strokeColor=#666666;" parent="1" vertex="1">
          <mxGeometry x="340" y="295" width="120" height="40" as="geometry" />
        </mxCell>
        <mxCell id="OjZHSgcHj5NO1IIlfvDc-11" value="" style="edgeStyle=orthogonalEdgeStyle;rounded=0;orthogonalLoop=1;jettySize=auto;html=1;" parent="1" source="OjZHSgcHj5NO1IIlfvDc-9" target="OjZHSgcHj5NO1IIlfvDc-10" edge="1">
          <mxGeometry relative="1" as="geometry" />
        </mxCell>
        <mxCell id="OjZHSgcHj5NO1IIlfvDc-9" value="设备 Hub" style="ellipse;whiteSpace=wrap;html=1;fillColor=#e1d5e7;strokeColor=#9673a6;" parent="1" vertex="1">
          <mxGeometry x="330" y="375" width="135" height="50" as="geometry" />
        </mxCell>
        <mxCell id="OjZHSgcHj5NO1IIlfvDc-10" value="。。。" style="ellipse;whiteSpace=wrap;html=1;fillColor=#e1d5e7;strokeColor=#9673a6;" parent="1" vertex="1">
          <mxGeometry x="515" y="385" width="120" height="30" as="geometry" />
        </mxCell>
        <mxCell id="OjZHSgcHj5NO1IIlfvDc-12" value="设备1" style="ellipse;whiteSpace=wrap;html=1;fillColor=#e1d5e7;strokeColor=#9673a6;" parent="1" vertex="1">
          <mxGeometry x="515" y="345" width="120" height="30" as="geometry" />
        </mxCell>
        <mxCell id="OjZHSgcHj5NO1IIlfvDc-13" value="设备2" style="ellipse;whiteSpace=wrap;html=1;fillColor=#e1d5e7;strokeColor=#9673a6;" parent="1" vertex="1">
          <mxGeometry x="515" y="425" width="120" height="30" as="geometry" />
        </mxCell>
        <mxCell id="OjZHSgcHj5NO1IIlfvDc-14" value="" style="endArrow=classic;html=1;rounded=0;exitX=1;exitY=0.5;exitDx=0;exitDy=0;entryX=0;entryY=0.5;entryDx=0;entryDy=0;" parent="1" source="OjZHSgcHj5NO1IIlfvDc-9" target="OjZHSgcHj5NO1IIlfvDc-12" edge="1">
          <mxGeometry width="50" height="50" relative="1" as="geometry">
            <mxPoint x="395" y="335" as="sourcePoint" />
            <mxPoint x="445" y="285" as="targetPoint" />
          </mxGeometry>
        </mxCell>
        <mxCell id="OjZHSgcHj5NO1IIlfvDc-17" value="" style="endArrow=classic;html=1;rounded=0;exitX=1;exitY=0.5;exitDx=0;exitDy=0;entryX=0;entryY=0.5;entryDx=0;entryDy=0;" parent="1" source="OjZHSgcHj5NO1IIlfvDc-9" target="OjZHSgcHj5NO1IIlfvDc-13" edge="1">
          <mxGeometry width="50" height="50" relative="1" as="geometry">
            <mxPoint x="395" y="335" as="sourcePoint" />
            <mxPoint x="445" y="285" as="targetPoint" />
          </mxGeometry>
        </mxCell>
        <mxCell id="HWWjyvWai2U01b_T1ugq-3" value="" style="endArrow=classic;html=1;rounded=0;entryX=1;entryY=0.5;entryDx=0;entryDy=0;entryPerimeter=0;labelPosition=center;verticalLabelPosition=top;align=center;verticalAlign=bottom;" parent="1" target="OjZHSgcHj5NO1IIlfvDc-1" edge="1">
          <mxGeometry width="50" height="50" relative="1" as="geometry">
            <mxPoint x="310" y="130" as="sourcePoint" />
            <mxPoint x="330" y="80" as="targetPoint" />
            <Array as="points">
              <mxPoint x="320" y="130" />
            </Array>
          </mxGeometry>
        </mxCell>
        <mxCell id="HWWjyvWai2U01b_T1ugq-4" value="push" style="edgeLabel;html=1;align=center;verticalAlign=middle;resizable=0;points=[];" parent="HWWjyvWai2U01b_T1ugq-3" vertex="1" connectable="0">
          <mxGeometry relative="1" as="geometry">
            <mxPoint as="offset" />
          </mxGeometry>
        </mxCell>
        <mxCell id="B-w6LEL6wcrusngboEQW-2" value="" style="endArrow=classic;html=1;rounded=0;entryX=0.5;entryY=0;entryDx=0;entryDy=0;" edge="1" parent="1" target="OjZHSgcHj5NO1IIlfvDc-7">
          <mxGeometry width="50" height="50" relative="1" as="geometry">
            <mxPoint x="400" y="164" as="sourcePoint" />
            <mxPoint x="440" y="110" as="targetPoint" />
          </mxGeometry>
        </mxCell>
        <mxCell id="B-w6LEL6wcrusngboEQW-8" value="" style="endArrow=classic;startArrow=classic;html=1;rounded=0;entryX=0.5;entryY=1;entryDx=0;entryDy=0;" edge="1" parent="1" target="OjZHSgcHj5NO1IIlfvDc-7">
          <mxGeometry width="50" height="50" relative="1" as="geometry">
            <mxPoint x="400" y="300" as="sourcePoint" />
            <mxPoint x="450" y="250" as="targetPoint" />
          </mxGeometry>
        </mxCell>
        <mxCell id="B-w6LEL6wcrusngboEQW-9" value="" style="endArrow=classic;startArrow=classic;html=1;rounded=0;entryX=0.5;entryY=1;entryDx=0;entryDy=0;" edge="1" parent="1" target="OjZHSgcHj5NO1IIlfvDc-8">
          <mxGeometry width="50" height="50" relative="1" as="geometry">
            <mxPoint x="400" y="380" as="sourcePoint" />
            <mxPoint x="450" y="330" as="targetPoint" />
          </mxGeometry>
        </mxCell>
        <mxCell id="B-w6LEL6wcrusngboEQW-11" value="" style="endArrow=classic;html=1;rounded=0;entryX=0;entryY=0.5;entryDx=0;entryDy=0;" edge="1" parent="1" target="OjZHSgcHj5NO1IIlfvDc-8">
          <mxGeometry width="50" height="50" relative="1" as="geometry">
            <mxPoint x="220" y="315" as="sourcePoint" />
            <mxPoint x="270" y="260" as="targetPoint" />
          </mxGeometry>
        </mxCell>
        <mxCell id="B-w6LEL6wcrusngboEQW-12" value="" style="endArrow=classic;html=1;rounded=0;exitX=0.5;exitY=0.9;exitDx=0;exitDy=0;exitPerimeter=0;" edge="1" parent="1" source="OjZHSgcHj5NO1IIlfvDc-1" target="OjZHSgcHj5NO1IIlfvDc-6">
          <mxGeometry width="50" height="50" relative="1" as="geometry">
            <mxPoint x="165" y="160" as="sourcePoint" />
            <mxPoint x="210" y="110" as="targetPoint" />
          </mxGeometry>
        </mxCell>
      </root>
    </mxGraphModel>
  </diagram>
</mxfile>
